# xmcd
#
# Track frame offsets: 
#        150
#        3732
#        21449
#        36790
#        56598
#        72356
#        79228
#        97134
#        119353
#        149250
#        178278
#        202760
#
# Disc length: 2745 seconds
#
# Revision: 0
# Processed by: cddbd v1.5.2PL0 Copyright (c) Steve Scherf et al.
# Submitted via: ExactAudioCopyFreeDBPlugin 1.0
#
DISCID=ad0ab70c
DTITLE=boTECOeletro - boTECOeletro vol. 2
DYEAR=1900
DGENRE=Bluegrass
TTITLE0=Boteco Vergara
TTITLE1=Copacabana Peace Love and War
TTITLE2=Carimbó Sirimbó Curió
TTITLE3=Juízo Final
TTITLE4=Mela Mocidade
TTITLE5=Berimbauzada
TTITLE6=Mr. E
TTITLE7=Baden Power
TTITLE8=Beautiful Blind
TTITLE9=Guitarrada
TTITLE10=Avohai
TTITLE11=Boteco Ubaldo
EXTD=
EXTT0=
EXTT1=
EXTT2=
EXTT3=
EXTT4=
EXTT5=
EXTT6=
EXTT7=
EXTT8=
EXTT9=
EXTT10=
EXTT11=
PLAYORDER=
